<svg width="224" height="43" viewBox="0 0 224 43" fill="none" xmlns="http://www.w3.org/2000/svg">
<path d="M6.34375 26.5C5.92188 27.3125 5.71094 28.1641 5.71094 29.0547C5.71094 29.1172 5.92969 29.1484 6.36719 29.1484C6.82031 29.1328 7.40625 29.1328 8.125 29.1484C8.85938 29.1484 9.6875 29.1719 10.6094 29.2188C11.5469 29.25 12.5 29.3359 13.4688 29.4766C14.4375 29.6016 15.3828 29.7969 16.3047 30.0625C17.2422 30.3281 18.0781 30.6875 18.8125 31.1406C20.4219 32.1562 21.2266 33.5391 21.2266 35.2891C21.2266 37.2891 20.3281 38.9844 18.5312 40.375C16.6719 41.8125 14.25 42.5938 11.2656 42.7188V41.1719C13.1406 41.0469 14.6641 40.5156 15.8359 39.5781C16.9141 38.7031 17.4531 37.6484 17.4531 36.4141C17.4531 35.1797 16.8438 34.2109 15.625 33.5078C14.4219 32.8047 12.8281 32.4531 10.8438 32.4531C8.85938 32.4531 7.25781 32.5234 6.03906 32.6641C4.97656 33.0547 4.36719 33.9219 4.21094 35.2656C4.16406 35.6719 4.14062 36.1328 4.14062 36.6484C4.14062 37.1797 4.26562 37.7031 4.51562 38.2188C4.78125 38.75 5.14062 39.2188 5.59375 39.625C6.53125 40.4844 7.69531 40.9922 9.08594 41.1484V42.7188C6.38281 42.5625 4.21875 41.8438 2.59375 40.5625C1.10938 39.3906 0.367188 38 0.367188 36.3906C0.367188 34.5781 1.14062 33.1562 2.6875 32.125C3.10938 31.8594 3.52344 31.6562 3.92969 31.5156V31.3984C3.13281 31.1953 2.53125 30.5391 2.125 29.4297C1.98438 29.0391 1.91406 28.6562 1.91406 28.2812C1.91406 27.8906 1.97656 27.5781 2.10156 27.3438C2.22656 27.0938 2.39062 26.8594 2.59375 26.6406C2.96875 26.2812 3.46875 25.8984 4.09375 25.4922L6.34375 26.5ZM6.01562 18.0625C6.01562 21.5781 6.96875 23.5547 8.875 23.9922V25.6094C7.51562 25.5156 6.1875 25.0938 4.89062 24.3438C2.20312 22.8125 0.859375 20.6562 0.859375 17.875C0.859375 15.8906 1.60156 14.2188 3.08594 12.8594C4.55469 11.5156 6.48438 10.7344 8.875 10.5156V12.1328C6.96875 12.5703 6.01562 14.5469 6.01562 18.0625ZM19.1875 12.6016C18.5 12.6016 17.9844 12.4453 17.6406 12.1328C17.2969 11.8047 17.125 11.4844 17.125 11.1719C17.125 10.8438 17.2422 10.3594 17.4766 9.71875C16.5234 9.76562 15.9609 10.5 15.7891 11.9219C16.9141 12.8125 17.6562 13.5859 18.0156 14.2422C18.6094 15.3047 18.9062 16.4453 18.9062 17.6641C18.9062 18.8672 18.7109 19.9219 18.3203 20.8281C17.9297 21.7344 17.375 22.5234 16.6562 23.1953C15.1719 24.5859 13.2266 25.3906 10.8203 25.6094V24.0156C12.8047 23.5781 13.7969 21.5938 13.7969 18.0625C13.7969 14.5312 12.8047 12.5469 10.8203 12.1094V10.4922C11.9453 10.5703 13.0469 10.7891 14.125 11.1484C14.5469 8.97656 15.8984 7.89062 18.1797 7.89062C19.0547 7.89062 19.7109 8.0625 20.1484 8.40625C20.8828 9 21.25 9.625 21.25 10.2812C21.25 10.9375 21.0781 11.4922 20.7344 11.9453C20.3906 12.3828 19.875 12.6016 19.1875 12.6016ZM31.75 16.4219V29.3828C31.75 30.7891 32.0938 31.625 32.7812 31.8906C33 31.9844 33.2344 32.0625 33.4844 32.125C34.3125 32.3594 34.8984 32.5703 35.2422 32.7578V34H23.9453V32.7578C24.2422 32.5703 24.5547 32.4219 24.8828 32.3125C25.2109 32.1875 25.5156 32.0469 25.7969 31.8906C26.4375 31.5625 26.7578 31.0312 26.7578 30.2969V16.7266C26.7578 14.9297 26.6094 13.8906 26.3125 13.6094C26.0312 13.3281 25.75 13.125 25.4688 13C25.2031 12.875 24.9219 12.7734 24.625 12.6953C24.3281 12.6016 24.0703 12.4688 23.8516 12.2969V10.8672H31.4688L31.75 16.4219ZM38.9219 17.1719C38.2344 17.1719 37.6953 17.0078 37.3047 16.6797C36.9141 16.3516 36.7188 15.9453 36.7188 15.4609C36.7188 14.9766 36.9219 14.5 37.3281 14.0312C37.1875 13.9375 37.0078 13.8906 36.7891 13.8906C35.7266 13.9062 34.6953 14.6562 33.6953 16.1406V12.5312C34.8516 11.0938 36.1641 10.375 37.6328 10.375C39.3203 10.375 40.4531 11.1094 41.0312 12.5781C41.2188 13.0312 41.3125 13.6406 41.3125 14.4062C41.3125 15.1719 41.0859 15.8281 40.6328 16.375C40.1797 16.9062 39.6094 17.1719 38.9219 17.1719ZM54.6719 22.0469C50.4844 23.5625 48.3906 25.7734 48.3906 28.6797C48.3906 29.8516 48.6719 30.7969 49.2344 31.5156C49.7969 32.2188 50.6328 32.5703 51.7422 32.5703C52.8672 32.5703 53.8438 32.1562 54.6719 31.3281V33.5547C53.4688 34.2734 52.1094 34.6328 50.5938 34.6328C49.0781 34.6328 47.8594 34.4844 46.9375 34.1875C46.0312 33.8906 45.2656 33.4844 44.6406 32.9688C43.3438 31.9219 42.6953 30.5391 42.6953 28.8203C42.6953 25.2734 45.8438 22.5938 52.1406 20.7812C53.0312 20.5156 53.875 20.2812 54.6719 20.0781V22.0469ZM49.1172 13.6562C49.9766 13.9844 50.4062 14.7344 50.4062 15.9062C50.4062 16.6562 50.1406 17.2578 49.6094 17.7109C49.0781 18.1641 48.3594 18.3906 47.4531 18.3906C46.5625 18.3906 45.8516 18.1484 45.3203 17.6641C44.8047 17.1797 44.5469 16.5547 44.5469 15.7891C44.5469 15.0234 44.7266 14.3359 45.0859 13.7266C45.4453 13.1172 45.9531 12.5781 46.6094 12.1094C47.9688 11.125 49.6797 10.5547 51.7422 10.3984V12.1797C50.4766 12.3047 49.6016 12.7969 49.1172 13.6562ZM63.0625 31.6797C63.9219 31.6797 64.4688 30.8984 64.7031 29.3359L65.8984 29.9688C65.7422 31.4844 65.3203 32.6406 64.6328 33.4375C63.9609 34.2344 62.8828 34.6328 61.3984 34.6328C60.2422 34.6328 59.3828 34.4219 58.8203 34C57.9141 33.3125 57.1797 32.2734 56.6172 30.8828V16.2812C56.6172 15.3125 56.3594 14.4766 55.8438 13.7734C55.3438 13.0547 54.625 12.5703 53.6875 12.3203V10.3984C58.9844 10.6797 61.6328 13.4766 61.6328 18.7891V29.875C61.6328 31.0781 62.1094 31.6797 63.0625 31.6797ZM83.0078 4.42188C83.0078 3.57812 82.6953 3.01562 82.0703 2.73438C81.7891 2.59375 81.4688 2.48437 81.1094 2.40625C80.75 2.3125 80.3906 2.17188 80.0312 1.98438V0.554688H88V29.7344C88 30.9844 88.625 31.8125 89.875 32.2188C90.1875 32.3125 90.4844 32.4453 90.7656 32.6172V34H83.0078V4.42188ZM78.4375 12.6953C75.0938 12.6953 73.4219 16.0156 73.4219 22.6562C73.4219 29.2969 75 32.6172 78.1562 32.6172C79.0938 32.6172 80.0625 32.0391 81.0625 30.8828V33.6719C80.0312 34.3125 78.8125 34.6328 77.4062 34.6328C76 34.6328 74.7266 34.3672 73.5859 33.8359C72.4453 33.3047 71.4531 32.5312 70.6094 31.5156C68.75 29.2812 67.8203 26.3516 67.8203 22.7266C67.8203 19.1016 68.7344 16.1406 70.5625 13.8438C72.4062 11.5312 74.7266 10.375 77.5234 10.375C78.7578 10.375 79.9375 10.6719 81.0625 11.2656V13.4922C80.3125 12.9609 79.4375 12.6953 78.4375 12.6953ZM101.945 10.7266V30.2969C101.945 31.0312 102.266 31.5625 102.906 31.8906C103.203 32.0469 103.523 32.1875 103.867 32.3125C104.211 32.4219 104.547 32.5703 104.875 32.7578V34H93.9766V32.7578C94.3047 32.5703 94.6406 32.4219 94.9844 32.3125C95.3438 32.1875 95.6719 32.0469 95.9688 31.8906C96.625 31.5625 96.9531 31.0312 96.9531 30.2969V14.6172C96.9531 13.7891 96.6406 13.2188 96.0156 12.9062C95.7344 12.7656 95.4141 12.6562 95.0547 12.5781C94.6953 12.4844 94.3359 12.3438 93.9766 12.1562V10.8672L101.945 10.7266ZM96.0859 3.46094C96.0859 2.55469 96.375 1.82812 96.9531 1.28125C97.5312 0.71875 98.1562 0.4375 98.8281 0.4375C99.5156 0.4375 100.047 0.515625 100.422 0.671875C100.812 0.8125 101.148 1.01563 101.43 1.28125C102.023 1.84375 102.32 2.57031 102.32 3.46094C102.32 4.33594 102.023 5.05469 101.43 5.61719C100.852 6.16406 100.102 6.4375 99.1797 6.4375C98.2734 6.4375 97.5312 6.16406 96.9531 5.61719C96.375 5.07031 96.0859 4.35156 96.0859 3.46094ZM123.484 20.0312C123.484 15.5312 122.359 13 120.109 12.4375V10.4219C123.031 10.6875 125.281 11.9141 126.859 14.1016C128.344 16.1484 129.086 18.8125 129.086 22.0938H115.82V20.0312H123.484ZM120.203 32.5703C122.922 32.4453 124.852 31.1641 125.992 28.7266C126.32 28.0234 126.602 27.3047 126.836 26.5703L128.852 27.3203C127.977 30.5859 126.188 32.7812 123.484 33.9062C122.531 34.2969 121.438 34.5312 120.203 34.6094V32.5703ZM113.852 21.0391C113.852 27.7578 115.32 31.5391 118.258 32.3828V34.5391C115.195 34.1953 112.766 32.9219 110.969 30.7188C109.172 28.5469 108.273 25.8203 108.273 22.5391C108.273 19.0859 109.172 16.25 110.969 14.0312C112.781 11.7969 115.18 10.5859 118.164 10.3984V12.3438C115.289 12.6875 113.852 15.5859 113.852 21.0391ZM146.359 12.8828C145.062 12.8828 143.875 13.3906 142.797 14.4062V11.8516C144.172 10.8672 145.789 10.375 147.648 10.375C149.805 10.375 151.547 10.9375 152.875 12.0625C154.234 13.2344 154.914 14.8828 154.914 17.0078V29.3359C154.914 30.8203 155.219 31.6875 155.828 31.9375C156.016 32.0156 156.219 32.0781 156.438 32.125C157.031 32.2812 157.492 32.4922 157.82 32.7578V34H148.75V32.4062C148.75 32.1094 148.883 31.8359 149.148 31.5859C149.414 31.3359 149.609 31.125 149.734 30.9531C149.859 30.7656 149.922 30.5 149.922 30.1562V16.7734C149.922 14.1797 148.734 12.8828 146.359 12.8828ZM140.852 29.2422C140.852 30.7109 141.164 31.5938 141.789 31.8906C141.977 31.9688 142.18 32.0469 142.398 32.125C143.039 32.3281 143.508 32.5391 143.805 32.7578V34H132.883V32.7578C133.164 32.5391 133.516 32.3594 133.938 32.2188C134.375 32.0781 134.688 31.9688 134.875 31.8906C135.078 31.8125 135.25 31.6719 135.391 31.4688C135.688 31.0625 135.836 30.3359 135.836 29.2891V15.7656C135.836 14.2188 135.531 13.3203 134.922 13.0703C134.734 12.9922 134.531 12.9219 134.312 12.8594C133.625 12.7031 133.133 12.5156 132.836 12.2969V10.8672H140.852V29.2422ZM170.148 11.2891H173.992V13.3516H170.148V11.2891ZM168.203 34.6094C165.5 34.4844 163.906 33.2812 163.422 31C163.266 30.2812 163.188 29.4766 163.188 28.5859V13.3516H160.023V11.9219C160.258 11.7188 160.508 11.5547 160.773 11.4297C161.055 11.2891 161.328 11.1562 161.594 11.0312C162.281 10.6875 162.781 10.2734 163.094 9.78906C163.406 9.28906 163.664 8.75781 163.867 8.19531C164.086 7.61719 164.266 7.04688 164.406 6.48438C164.562 5.90625 164.703 5.34375 164.828 4.79688C164.969 4.25 165.141 3.71094 165.344 3.17969L168.203 3.03906V34.6094ZM170.148 32.4766C171.32 32.4766 172.234 31.6406 172.891 29.9688C173.094 29.4531 173.289 28.8906 173.477 28.2812L174.977 28.6328C174.555 31.4297 173.594 33.2188 172.094 34C171.547 34.2812 170.898 34.4688 170.148 34.5625V32.4766ZM194.148 32.7812C197.43 32.6406 199.578 31.3594 200.594 28.9375C200.938 28.1406 201.109 27.2188 201.109 26.1719V5.28906C201.109 3.99219 200.344 3.08594 198.812 2.57031C198.391 2.42969 197.969 2.26562 197.547 2.07812V0.695312H207.391V2.07812C206.969 2.26562 206.539 2.42969 206.102 2.57031C205.68 2.71094 205.297 2.89063 204.953 3.10938C204.172 3.57812 203.781 4.30469 203.781 5.28906V25.4453C203.781 31.1328 200.57 34.2031 194.148 34.6562V32.7812ZM192.203 34.7266C186.359 34.7266 182.641 32.9062 181.047 29.2656C180.516 28.0625 180.25 26.6797 180.25 25.1172V5.00781C180.25 4.00781 179.945 3.32031 179.336 2.94531C179.055 2.77344 178.719 2.63281 178.328 2.52344C177.938 2.41406 177.516 2.26562 177.062 2.07812V0.695312H189.32V2.07812C188.852 2.26562 188.422 2.41406 188.031 2.52344C187.641 2.63281 187.297 2.77344 187 2.94531C186.391 3.30469 186.086 3.99219 186.086 5.00781V26.2188C186.086 28.0469 186.641 29.5469 187.75 30.7188C188.812 31.8438 190.297 32.5156 192.203 32.7344V34.7266ZM223.281 0.695312V2.07812C222.828 2.26562 222.398 2.41406 221.992 2.52344C221.586 2.63281 221.234 2.77344 220.938 2.94531C220.266 3.32031 219.93 4.00781 219.93 5.00781V29.6875C219.93 30.6875 220.266 31.375 220.938 31.75C221.25 31.9219 221.609 32.0625 222.016 32.1719C222.422 32.2812 222.859 32.4297 223.328 32.6172V34H210.695V32.6172C211.148 32.4297 211.578 32.2812 211.984 32.1719C212.391 32.0625 212.75 31.9219 213.062 31.75C213.75 31.375 214.094 30.6875 214.094 29.6875V5.00781C214.094 4.00781 213.75 3.32031 213.062 2.94531C212.75 2.77344 212.391 2.63281 211.984 2.52344C211.578 2.41406 211.148 2.26562 210.695 2.07812V0.695312H223.281Z" fill="url(#paint0_linear)"/>
<defs>
<linearGradient id="paint0_linear" x1="2.14894" y1="15.5" x2="178.064" y2="15.5" gradientUnits="userSpaceOnUse">
<stop stop-color="#7114C5"/>
<stop offset="1" stop-color="#E685F4"/>
</linearGradient>
</defs>
</svg>
