<svg width="166" height="59" viewBox="0 0 166 59" fill="none" xmlns="http://www.w3.org/2000/svg">
<path d="M9.30469 15.5547V45.2969C9.30469 46.0312 9.625 46.5625 10.2656 46.8906C10.5469 47.0469 10.8594 47.1875 11.2031 47.3125C11.5625 47.4219 11.9141 47.5703 12.2578 47.7578V49H1.33594V47.7578C1.66406 47.5703 2 47.4219 2.34375 47.3125C2.70312 47.1875 3.02344 47.0469 3.30469 46.8906C3.96094 46.5469 4.28906 46.0156 4.28906 45.2969V19.4688C4.28906 18.7344 3.95312 18.1875 3.28125 17.8281C2.98438 17.6719 2.65625 17.5391 2.29688 17.4297C1.9375 17.3203 1.59375 17.1719 1.26562 16.9844V15.5547H9.30469ZM30.2344 35.0312C30.2344 30.5312 29.1094 28 26.8594 27.4375V25.4219C29.7812 25.6875 32.0312 26.9141 33.6094 29.1016C35.0938 31.1484 35.8359 33.8125 35.8359 37.0938H22.5703V35.0312H30.2344ZM26.9531 47.5703C29.6719 47.4453 31.6016 46.1641 32.7422 43.7266C33.0703 43.0234 33.3516 42.3047 33.5859 41.5703L35.6016 42.3203C34.7266 45.5859 32.9375 47.7812 30.2344 48.9062C29.2812 49.2969 28.1875 49.5312 26.9531 49.6094V47.5703ZM20.6016 36.0391C20.6016 42.7578 22.0703 46.5391 25.0078 47.3828V49.5391C21.9453 49.1953 19.5156 47.9219 17.7188 45.7188C15.9219 43.5469 15.0234 40.8203 15.0234 37.5391C15.0234 34.0859 15.9219 31.25 17.7188 29.0312C19.5312 26.7969 21.9297 25.5859 24.9141 25.3984V27.3438C22.0391 27.6875 20.6016 30.5859 20.6016 36.0391ZM50.9062 41.0547L54.0234 32.5469C54.6797 30.75 55.0078 29.6484 55.0078 29.2422C55.0078 28.8203 54.8984 28.5234 54.6797 28.3516C54.4766 28.1797 54.2188 28.0547 53.9062 27.9766C53.6094 27.8828 53.2891 27.8125 52.9453 27.7656C52.6172 27.7031 52.3203 27.6094 52.0547 27.4844V26.0078H60.6797V27.4844C60.4922 27.625 60.2656 27.7266 60 27.7891C59.75 27.8516 59.4844 27.9375 59.2031 28.0469C58.4062 28.375 57.8594 29.0312 57.5625 30.0156C57.5156 30.1719 57.4609 30.3203 57.3984 30.4609L52.1484 44.2422L50.9062 41.0547ZM51.3281 46.4688L50.1797 49.4688H47.4844L39.7031 29.3125C39.5 28.7656 39.0625 28.3516 38.3906 28.0703C37.625 27.7578 37.1172 27.4688 36.8672 27.2031V26.0078H47.8125V27.4375C47.5469 27.5781 47.25 27.6797 46.9219 27.7422C46.5938 27.8047 46.2812 27.875 45.9844 27.9531C45.3125 28.1562 44.9766 28.5 44.9766 28.9844C44.9766 29.2969 45.0391 29.6094 45.1641 29.9219C45.3047 30.2344 45.4766 30.6953 45.6797 31.3047C45.8984 31.9141 46.1562 32.6328 46.4531 33.4609C46.7656 34.2734 47.1016 35.1641 47.4609 36.1328C47.8203 37.1016 48.2109 38.1562 48.6328 39.2969C49.0547 40.4375 49.5234 41.6875 50.0391 43.0469L51.3281 46.4688ZM69.8672 25.7266V45.2969C69.8672 46.0312 70.1875 46.5625 70.8281 46.8906C71.125 47.0469 71.4453 47.1875 71.7891 47.3125C72.1328 47.4219 72.4688 47.5703 72.7969 47.7578V49H61.8984V47.7578C62.2266 47.5703 62.5625 47.4219 62.9062 47.3125C63.2656 47.1875 63.5938 47.0469 63.8906 46.8906C64.5469 46.5625 64.875 46.0312 64.875 45.2969V29.6172C64.875 28.7891 64.5625 28.2188 63.9375 27.9062C63.6562 27.7656 63.3359 27.6562 62.9766 27.5781C62.6172 27.4844 62.2578 27.3438 61.8984 27.1562V25.8672L69.8672 25.7266ZM64.0078 18.4609C64.0078 17.5547 64.2969 16.8281 64.875 16.2812C65.4531 15.7188 66.0781 15.4375 66.75 15.4375C67.4375 15.4375 67.9688 15.5156 68.3438 15.6719C68.7344 15.8125 69.0703 16.0156 69.3516 16.2812C69.9453 16.8438 70.2422 17.5703 70.2422 18.4609C70.2422 19.3359 69.9453 20.0547 69.3516 20.6172C68.7734 21.1641 68.0234 21.4375 67.1016 21.4375C66.1953 21.4375 65.4531 21.1641 64.875 20.6172C64.2969 20.0703 64.0078 19.3516 64.0078 18.4609ZM89.6719 27.8828C88.375 27.8828 87.1875 28.3906 86.1094 29.4062V26.8516C87.4844 25.8672 89.1016 25.375 90.9609 25.375C93.1172 25.375 94.8594 25.9375 96.1875 27.0625C97.5469 28.2344 98.2266 29.8828 98.2266 32.0078V44.3359C98.2266 45.8203 98.5312 46.6875 99.1406 46.9375C99.3281 47.0156 99.5312 47.0781 99.75 47.125C100.344 47.2812 100.805 47.4922 101.133 47.7578V49H92.0625V47.4062C92.0625 47.1094 92.1953 46.8359 92.4609 46.5859C92.7266 46.3359 92.9219 46.125 93.0469 45.9531C93.1719 45.7656 93.2344 45.5 93.2344 45.1562V31.7734C93.2344 29.1797 92.0469 27.8828 89.6719 27.8828ZM84.1641 44.2422C84.1641 45.7109 84.4766 46.5938 85.1016 46.8906C85.2891 46.9688 85.4922 47.0469 85.7109 47.125C86.3516 47.3281 86.8203 47.5391 87.1172 47.7578V49H76.1953V47.7578C76.4766 47.5391 76.8281 47.3594 77.25 47.2188C77.6875 47.0781 78 46.9688 78.1875 46.8906C78.3906 46.8125 78.5625 46.6719 78.7031 46.4688C79 46.0625 79.1484 45.3359 79.1484 44.2891V30.7656C79.1484 29.2188 78.8438 28.3203 78.2344 28.0703C78.0469 27.9922 77.8438 27.9219 77.625 27.8594C76.9375 27.7031 76.4453 27.5156 76.1484 27.2969V25.8672H84.1641V44.2422ZM120.961 47.7812C124.242 47.6406 126.391 46.3594 127.406 43.9375C127.75 43.1406 127.922 42.2188 127.922 41.1719V20.2891C127.922 18.9922 127.156 18.0859 125.625 17.5703C125.203 17.4297 124.781 17.2656 124.359 17.0781V15.6953H134.203V17.0781C133.781 17.2656 133.352 17.4297 132.914 17.5703C132.492 17.7109 132.109 17.8906 131.766 18.1094C130.984 18.5781 130.594 19.3047 130.594 20.2891V40.4453C130.594 46.1328 127.383 49.2031 120.961 49.6562V47.7812ZM119.016 49.7266C113.172 49.7266 109.453 47.9062 107.859 44.2656C107.328 43.0625 107.062 41.6797 107.062 40.1172V20.0078C107.062 19.0078 106.758 18.3203 106.148 17.9453C105.867 17.7734 105.531 17.6328 105.141 17.5234C104.75 17.4141 104.328 17.2656 103.875 17.0781V15.6953H116.133V17.0781C115.664 17.2656 115.234 17.4141 114.844 17.5234C114.453 17.6328 114.109 17.7734 113.812 17.9453C113.203 18.3047 112.898 18.9922 112.898 20.0078V41.2188C112.898 43.0469 113.453 44.5469 114.562 45.7188C115.625 46.8438 117.109 47.5156 119.016 47.7344V49.7266ZM150.094 15.6953V17.0781C149.641 17.2656 149.211 17.4141 148.805 17.5234C148.398 17.6328 148.047 17.7734 147.75 17.9453C147.078 18.3203 146.742 19.0078 146.742 20.0078V44.6875C146.742 45.6875 147.078 46.375 147.75 46.75C148.062 46.9219 148.422 47.0625 148.828 47.1719C149.234 47.2812 149.672 47.4297 150.141 47.6172V49H137.508V47.6172C137.961 47.4297 138.391 47.2812 138.797 47.1719C139.203 47.0625 139.562 46.9219 139.875 46.75C140.562 46.375 140.906 45.6875 140.906 44.6875V20.0078C140.906 19.0078 140.562 18.3203 139.875 17.9453C139.562 17.7734 139.203 17.6328 138.797 17.5234C138.391 17.4141 137.961 17.2656 137.508 17.0781V15.6953H150.094Z" fill="url(#paint0_linear)"/>
<g clip-path="url(#clip0)">
<path d="M73.1365 4.20819L64.7704 15.0918L70.7046 15.9781L68.8635 23.7918L77.2296 12.9082L71.2954 12.022L73.1365 4.20819Z" stroke="url(#paint1_linear)" stroke-width="2" stroke-linecap="round" stroke-linejoin="round"/>
</g>
<defs>
<linearGradient id="paint0_linear" x1="2.94326" y1="30.5" x2="127.738" y2="30.5" gradientUnits="userSpaceOnUse">
<stop stop-color="#7114C5"/>
<stop offset="1" stop-color="#E685F4"/>
</linearGradient>
<linearGradient id="paint1_linear" x1="72.4772" y1="4.10971" x2="69.5229" y2="23.8903" gradientUnits="userSpaceOnUse">
<stop stop-color="#7114C5"/>
<stop offset="1" stop-color="#E685F4"/>
</linearGradient>
<clipPath id="clip0">
<rect width="16" height="24" fill="white" transform="translate(64.8604 0.949921) rotate(8.49454)"/>
</clipPath>
</defs>
</svg>
