<svg width="166" height="35" viewBox="0 0 166 35" fill="none" xmlns="http://www.w3.org/2000/svg">
<path d="M14.9375 26.0547L18.0547 17.5469C18.7109 15.75 19.0391 14.6484 19.0391 14.2422C19.0391 13.8203 18.9297 13.5234 18.7109 13.3516C18.5078 13.1797 18.25 13.0547 17.9375 12.9766C17.6406 12.8828 17.3203 12.8125 16.9766 12.7656C16.6484 12.7031 16.3516 12.6094 16.0859 12.4844V11.0078H24.7109V12.4844C24.5234 12.625 24.2969 12.7266 24.0312 12.7891C23.7812 12.8516 23.5156 12.9375 23.2344 13.0469C22.4375 13.375 21.8906 14.0312 21.5938 15.0156C21.5469 15.1719 21.4922 15.3203 21.4297 15.4609L16.1797 29.2422L14.9375 26.0547ZM15.3594 31.4688L14.2109 34.4688H11.5156L3.73438 14.3125C3.53125 13.7656 3.09375 13.3516 2.42188 13.0703C1.65625 12.7578 1.14844 12.4688 0.898438 12.2031V11.0078H11.8438V12.4375C11.5781 12.5781 11.2812 12.6797 10.9531 12.7422C10.625 12.8047 10.3125 12.875 10.0156 12.9531C9.34375 13.1562 9.00781 13.5 9.00781 13.9844C9.00781 14.2969 9.07031 14.6094 9.19531 14.9219C9.33594 15.2344 9.50781 15.6953 9.71094 16.3047C9.92969 16.9141 10.1875 17.6328 10.4844 18.4609C10.7969 19.2734 11.1328 20.1641 11.4922 21.1328C11.8516 22.1016 12.2422 23.1562 12.6641 24.2969C13.0859 25.4375 13.5547 26.6875 14.0703 28.0469L15.3594 31.4688ZM33.8984 10.7266V30.2969C33.8984 31.0312 34.2188 31.5625 34.8594 31.8906C35.1562 32.0469 35.4766 32.1875 35.8203 32.3125C36.1641 32.4219 36.5 32.5703 36.8281 32.7578V34H25.9297V32.7578C26.2578 32.5703 26.5938 32.4219 26.9375 32.3125C27.2969 32.1875 27.625 32.0469 27.9219 31.8906C28.5781 31.5625 28.9062 31.0312 28.9062 30.2969V14.6172C28.9062 13.7891 28.5938 13.2188 27.9688 12.9062C27.6875 12.7656 27.3672 12.6562 27.0078 12.5781C26.6484 12.4844 26.2891 12.3438 25.9297 12.1562V10.8672L33.8984 10.7266ZM28.0391 3.46094C28.0391 2.55469 28.3281 1.82812 28.9062 1.28125C29.4844 0.71875 30.1094 0.4375 30.7812 0.4375C31.4688 0.4375 32 0.515625 32.375 0.671875C32.7656 0.8125 33.1016 1.01563 33.3828 1.28125C33.9766 1.84375 34.2734 2.57031 34.2734 3.46094C34.2734 4.33594 33.9766 5.05469 33.3828 5.61719C32.8047 6.16406 32.0547 6.4375 31.1328 6.4375C30.2266 6.4375 29.4844 6.16406 28.9062 5.61719C28.3281 5.07031 28.0391 4.35156 28.0391 3.46094ZM49.8828 34.5859C47.2109 34.3203 45.0156 33.1875 43.2969 31.1875C41.375 28.9531 40.4141 26.0703 40.4141 22.5391C40.4141 18.9766 41.375 16.0781 43.2969 13.8438C45.0312 11.8281 47.2266 10.6875 49.8828 10.4219V12.25C48.5078 12.5156 47.5 13.4141 46.8594 14.9453C46.1719 16.6328 45.8281 19.1641 45.8281 22.5391C45.8281 27.4922 46.5938 30.625 48.125 31.9375C48.6406 32.3594 49.2266 32.6328 49.8828 32.7578V34.5859ZM51.8281 32.7812C54.5938 32.3125 55.9766 28.8984 55.9766 22.5391C55.9766 17.4922 55.1641 14.3125 53.5391 13C53.0234 12.5938 52.4531 12.3359 51.8281 12.2266V10.3984C54.4844 10.6016 56.7031 11.7188 58.4844 13.75C60.4531 16.0156 61.4375 18.9453 61.4375 22.5391C61.4375 26.1172 60.4688 29.0234 58.5312 31.2578C56.75 33.2891 54.5156 34.4062 51.8281 34.6094V32.7812ZM72.5703 0.554688V30.2969C72.5703 31.0312 72.8906 31.5625 73.5312 31.8906C73.8125 32.0469 74.125 32.1875 74.4688 32.3125C74.8281 32.4219 75.1797 32.5703 75.5234 32.7578V34H64.6016V32.7578C64.9297 32.5703 65.2656 32.4219 65.6094 32.3125C65.9688 32.1875 66.2891 32.0469 66.5703 31.8906C67.2266 31.5469 67.5547 31.0156 67.5547 30.2969V4.46875C67.5547 3.73438 67.2188 3.1875 66.5469 2.82812C66.25 2.67187 65.9219 2.53906 65.5625 2.42969C65.2031 2.32031 64.8594 2.17188 64.5312 1.98438V0.554688H72.5703ZM93.5 20.0312C93.5 15.5312 92.375 13 90.125 12.4375V10.4219C93.0469 10.6875 95.2969 11.9141 96.875 14.1016C98.3594 16.1484 99.1016 18.8125 99.1016 22.0938H85.8359V20.0312H93.5ZM90.2188 32.5703C92.9375 32.4453 94.8672 31.1641 96.0078 28.7266C96.3359 28.0234 96.6172 27.3047 96.8516 26.5703L98.8672 27.3203C97.9922 30.5859 96.2031 32.7812 93.5 33.9062C92.5469 34.2969 91.4531 34.5312 90.2188 34.6094V32.5703ZM83.8672 21.0391C83.8672 27.7578 85.3359 31.5391 88.2734 32.3828V34.5391C85.2109 34.1953 82.7812 32.9219 80.9844 30.7188C79.1875 28.5469 78.2891 25.8203 78.2891 22.5391C78.2891 19.0859 79.1875 16.25 80.9844 14.0312C82.7969 11.7969 85.1953 10.5859 88.1797 10.3984V12.3438C85.3047 12.6875 83.8672 15.5859 83.8672 21.0391ZM112.32 11.2891H116.164V13.3516H112.32V11.2891ZM110.375 34.6094C107.672 34.4844 106.078 33.2812 105.594 31C105.438 30.2812 105.359 29.4766 105.359 28.5859V13.3516H102.195V11.9219C102.43 11.7188 102.68 11.5547 102.945 11.4297C103.227 11.2891 103.5 11.1562 103.766 11.0312C104.453 10.6875 104.953 10.2734 105.266 9.78906C105.578 9.28906 105.836 8.75781 106.039 8.19531C106.258 7.61719 106.438 7.04688 106.578 6.48438C106.734 5.90625 106.875 5.34375 107 4.79688C107.141 4.25 107.312 3.71094 107.516 3.17969L110.375 3.03906V34.6094ZM112.32 32.4766C113.492 32.4766 114.406 31.6406 115.062 29.9688C115.266 29.4531 115.461 28.8906 115.648 28.2812L117.148 28.6328C116.727 31.4297 115.766 33.2188 114.266 34C113.719 34.2812 113.07 34.4688 112.32 34.5625V32.4766ZM136.32 32.7812C139.602 32.6406 141.75 31.3594 142.766 28.9375C143.109 28.1406 143.281 27.2188 143.281 26.1719V5.28906C143.281 3.99219 142.516 3.08594 140.984 2.57031C140.562 2.42969 140.141 2.26562 139.719 2.07812V0.695312H149.562V2.07812C149.141 2.26562 148.711 2.42969 148.273 2.57031C147.852 2.71094 147.469 2.89063 147.125 3.10938C146.344 3.57812 145.953 4.30469 145.953 5.28906V25.4453C145.953 31.1328 142.742 34.2031 136.32 34.6562V32.7812ZM134.375 34.7266C128.531 34.7266 124.812 32.9062 123.219 29.2656C122.688 28.0625 122.422 26.6797 122.422 25.1172V5.00781C122.422 4.00781 122.117 3.32031 121.508 2.94531C121.227 2.77344 120.891 2.63281 120.5 2.52344C120.109 2.41406 119.688 2.26562 119.234 2.07812V0.695312H131.492V2.07812C131.023 2.26562 130.594 2.41406 130.203 2.52344C129.812 2.63281 129.469 2.77344 129.172 2.94531C128.562 3.30469 128.258 3.99219 128.258 5.00781V26.2188C128.258 28.0469 128.812 29.5469 129.922 30.7188C130.984 31.8438 132.469 32.5156 134.375 32.7344V34.7266ZM165.453 0.695312V2.07812C165 2.26562 164.57 2.41406 164.164 2.52344C163.758 2.63281 163.406 2.77344 163.109 2.94531C162.438 3.32031 162.102 4.00781 162.102 5.00781V29.6875C162.102 30.6875 162.438 31.375 163.109 31.75C163.422 31.9219 163.781 32.0625 164.188 32.1719C164.594 32.2812 165.031 32.4297 165.5 32.6172V34H152.867V32.6172C153.32 32.4297 153.75 32.2812 154.156 32.1719C154.562 32.0625 154.922 31.9219 155.234 31.75C155.922 31.375 156.266 30.6875 156.266 29.6875V5.00781C156.266 4.00781 155.922 3.32031 155.234 2.94531C154.922 2.77344 154.562 2.63281 154.156 2.52344C153.75 2.41406 153.32 2.26562 152.867 2.07812V0.695312H165.453Z" fill="url(#paint0_linear)"/>
<defs>
<linearGradient id="paint0_linear" x1="4.94326" y1="15.5" x2="129.738" y2="15.5" gradientUnits="userSpaceOnUse">
<stop stop-color="#7114C5"/>
<stop offset="1" stop-color="#E685F4"/>
</linearGradient>
</defs>
</svg>
